<?xml version="1.0" standalone="no"?>
<!DOCTYPE svg PUBLIC "-//W3C//DTD SVG 20010904//EN"
 "http://www.w3.org/TR/2001/REC-SVG-20010904/DTD/svg10.dtd">
<svg version="1.0" xmlns="http://www.w3.org/2000/svg"
 width="806.000000pt" height="1000.000000pt" viewBox="0 0 806.000000 1000.000000"
 preserveAspectRatio="xMidYMid meet">

<g transform="translate(0.000000,1000.000000) scale(0.100000,-0.100000)"
fill="#000000" stroke="none">
<path d="M100 6415 l0 -1325 690 0 690 0 0 245 0 245 -395 0 -395 0 0 1080 0
1080 -295 0 -295 0 0 -1325z"/>
<path d="M2447 7049 c-133 -15 -272 -54 -377 -105 -196 -97 -330 -285 -342
-484 l-3 -45 258 -3 c201 -2 258 0 262 10 2 7 11 39 19 70 45 161 202 238 429
209 123 -16 181 -48 220 -121 21 -41 27 -66 27 -117 0 -155 -79 -204 -396
-243 -477 -60 -628 -109 -754 -247 -93 -102 -137 -241 -126 -404 14 -216 113
-372 291 -459 101 -49 182 -69 316 -77 236 -13 479 56 633 182 31 25 57 45 59
45 3 0 7 -25 11 -56 3 -30 13 -71 21 -90 l14 -34 261 0 c244 0 261 1 256 18
-52 180 -56 235 -56 888 0 375 -4 601 -11 640 -16 86 -72 186 -136 243 -58 52
-165 109 -253 134 -155 45 -442 66 -623 46z m477 -1381 c-20 -81 -37 -111 -90
-168 -80 -86 -223 -128 -379 -114 -177 17 -265 98 -265 244 0 172 130 264 420
299 135 17 220 36 276 63 l49 23 3 -143 c2 -105 -2 -158 -14 -204z"/>
<path d="M1020 4263 c-278 -20 -516 -109 -681 -255 -103 -90 -195 -252 -223
-390 -55 -272 32 -527 233 -680 139 -105 305 -168 716 -273 286 -73 338 -90
435 -141 167 -88 224 -233 149 -383 -66 -131 -234 -201 -485 -201 -272 0 -463
97 -546 277 -22 50 -46 153 -48 206 0 4 -127 7 -282 7 l-281 0 6 -92 c11 -173
76 -343 181 -475 128 -160 312 -268 572 -334 128 -33 131 -33 369 -34 254 0
313 6 468 51 369 107 595 352 637 689 41 329 -108 600 -411 748 -118 57 -172
75 -439 143 -541 139 -659 185 -706 276 -20 39 -23 166 -4 213 32 81 121 150
235 180 88 23 272 20 371 -5 175 -45 280 -157 299 -323 l7 -57 282 2 281 3 -3
65 c-15 384 -282 662 -727 754 -60 13 -340 39 -355 34 -3 -1 -25 -3 -50 -5z"/>
<path d="M4480 2875 l0 -1325 265 0 265 0 0 1325 0 1325 -265 0 -265 0 0
-1325z"/>
<path d="M5280 2875 l0 -1325 265 0 265 0 0 1325 0 1325 -265 0 -265 0 0
-1325z"/>
<path d="M3107 3509 c-405 -59 -650 -269 -680 -581 l-5 -48 262 0 262 0 18 70
c22 86 79 155 158 191 48 22 67 24 193 24 136 0 142 -1 200 -30 85 -42 118
-93 123 -185 5 -87 -1 -111 -39 -154 -53 -61 -134 -84 -424 -121 -344 -44
-481 -81 -602 -163 -97 -66 -153 -145 -189 -267 -21 -72 -23 -266 -4 -335 50
-183 179 -313 375 -377 66 -21 105 -27 223 -31 208 -7 348 20 496 95 73 37
155 95 169 119 13 22 27 16 27 -11 0 -14 7 -55 16 -90 l16 -65 264 0 c145 0
264 2 264 4 0 3 -5 17 -11 33 -39 102 -42 140 -48 838 -6 672 -7 681 -29 735
-80 198 -267 310 -582 350 -91 11 -373 11 -453 -1z m531 -1229 c-3 -140 -5
-148 -37 -216 -68 -148 -185 -213 -383 -214 -48 0 -110 5 -138 11 -65 14 -138
64 -162 111 -41 80 -32 209 19 277 59 77 163 115 409 151 129 18 226 43 271
69 24 13 26 -6 21 -189z"/>
<path d="M6820 3501 c-310 -69 -525 -233 -662 -506 -82 -163 -114 -332 -105
-555 16 -381 194 -683 493 -834 149 -75 289 -106 482 -106 426 0 699 170 859
532 23 54 43 100 43 103 0 3 -105 5 -234 5 l-234 0 -6 -26 c-10 -38 -112 -135
-177 -167 -30 -15 -91 -35 -135 -44 -140 -29 -310 6 -412 84 -76 57 -133 182
-150 327 l-8 66 695 2 696 3 -2 121 c-8 503 -264 875 -678 985 -116 31 -348
36 -465 10z m329 -392 c94 -21 176 -91 224 -190 29 -60 68 -194 59 -203 -8 -9
-850 -7 -855 2 -9 15 22 130 48 182 92 181 293 261 524 209z"/>
<path d="M3298 1030 l-66 -110 48 0 c48 0 49 0 142 101 51 55 95 105 96 110 2
5 -31 9 -75 9 l-79 0 -66 -110z"/>
<path d="M130 565 l0 -546 313 3 c303 3 313 4 364 27 62 27 126 94 156 159 26
60 28 178 3 237 -23 55 -72 103 -130 129 l-48 22 49 36 c164 118 120 402 -70
458 -28 8 -142 14 -339 17 l-298 5 0 -547z m582 402 c93 -42 118 -181 47 -262
-48 -54 -101 -65 -311 -65 l-178 0 0 176 0 176 203 -4 c161 -3 209 -8 239 -21z
m38 -477 c24 -14 55 -41 68 -60 21 -30 23 -44 20 -106 -3 -60 -8 -77 -32 -109
-52 -68 -82 -75 -323 -75 l-213 0 0 191 0 191 218 -4 c210 -3 218 -4 262 -28z"/>
<path d="M3600 565 l0 -545 65 0 65 0 0 545 0 545 -65 0 -65 0 0 -545z"/>
<path d="M3940 1030 l0 -81 63 3 62 3 3 78 3 77 -66 0 -65 0 0 -80z"/>
<path d="M1467 816 c-57 -16 -109 -55 -157 -119 l-35 -47 -3 80 -3 80 -59 0
-60 0 0 -395 0 -395 65 0 65 0 0 210 c0 115 5 232 11 260 24 111 104 182 222
196 l58 7 -3 66 c-3 62 -4 66 -28 68 -14 1 -47 -4 -73 -11z"/>
<path d="M1892 819 c-131 -22 -214 -100 -236 -221 l-7 -38 65 0 64 0 8 32 c18
82 75 118 189 118 119 0 165 -29 180 -111 5 -29 2 -41 -19 -66 -29 -35 -34
-36 -171 -57 -216 -32 -301 -79 -331 -183 -28 -97 1 -197 73 -246 112 -76 316
-57 421 41 l29 27 16 -46 c11 -30 25 -50 42 -57 32 -15 95 -15 130 -2 24 9 26
14 23 57 -3 47 -4 48 -35 48 -17 0 -35 4 -40 8 -4 5 -10 136 -13 291 l-5 283
-28 36 c-60 79 -198 112 -355 86z m266 -482 c-3 -46 -13 -97 -21 -113 -41 -79
-163 -125 -273 -105 -135 25 -142 186 -11 235 23 9 89 23 146 31 57 9 111 20
120 25 39 23 44 14 39 -73z"/>
<path d="M2658 816 c-127 -27 -203 -109 -202 -216 2 -126 63 -174 290 -228
185 -45 224 -70 224 -145 0 -48 -42 -92 -98 -104 -55 -11 -162 -8 -203 5 -46
16 -89 61 -98 104 -7 33 -7 33 -69 36 l-62 3 0 -34 c0 -46 45 -131 88 -167 92
-77 300 -93 430 -35 115 52 166 147 142 262 -20 94 -93 139 -300 187 -63 15
-133 37 -155 49 -67 38 -73 106 -12 151 34 25 156 35 211 16 40 -13 96 -71 96
-100 0 -18 7 -20 66 -20 l67 0 -7 43 c-16 104 -99 176 -226 196 -80 13 -109
13 -182 -3z"/>
<path d="M4507 820 c-139 -25 -224 -102 -243 -219 l-7 -41 67 0 c63 0 66 1 66
24 0 34 40 88 80 108 45 23 178 25 224 3 41 -20 66 -62 66 -112 0 -66 -32 -84
-190 -108 -245 -36 -326 -92 -338 -230 -14 -162 98 -255 289 -242 87 6 161 37
217 90 31 30 32 30 32 8 0 -34 28 -81 56 -91 33 -13 100 -13 125 0 15 8 19 22
19 61 0 46 -1 49 -22 44 -52 -12 -53 -7 -58 294 l-5 279 -30 44 c-23 32 -45
49 -86 65 -64 26 -189 36 -262 23z m253 -482 c0 -85 -16 -131 -59 -166 -90
-74 -282 -75 -321 -3 -16 31 -12 113 8 137 32 40 67 53 190 74 67 11 132 25
144 30 13 5 26 9 31 9 4 1 7 -36 7 -81z"/>
<path d="M3260 415 l0 -395 65 0 65 0 0 395 0 395 -65 0 -65 0 0 -395z"/>
<path d="M3940 415 l0 -395 65 0 65 0 0 395 0 395 -65 0 -65 0 0 -395z"/>
</g>
</svg>
